<svg width="160" height="26" viewBox="0 0 160 26" fill="none" xmlns="http://www.w3.org/2000/svg">
<path d="M5.01562 25.0469C4.47396 25.0469 3.95833 24.9167 3.46875 24.6562C2.98958 24.4062 2.55208 24.0469 2.15625 23.5781C1.27083 22.5052 0.828125 21.2188 0.828125 19.7188C0.828125 19.1042 1.06771 18.4896 1.54688 17.875C2.03646 17.25 2.83333 16.6875 3.9375 16.1875C6.41667 15.0729 10.0365 14.5156 14.7969 14.5156C14.7969 14.5156 19.1562 11.1354 27.875 4.375C28.3125 4.03125 28.5729 3.82292 28.6562 3.75C28.7917 3.60417 28.9635 3.53125 29.1719 3.53125C29.3906 3.53125 29.599 3.55208 29.7969 3.59375C30.0052 3.63542 30.1927 3.69271 30.3594 3.76562C30.724 3.92188 30.9062 4.10417 30.9062 4.3125C30.9062 4.45833 30.8698 4.57292 30.7969 4.65625L21.8594 14.4688H25.6719C25.8385 14.0938 26.1146 13.5729 26.5 12.9062L27.9375 10.5625C28.5 9.66667 29.0521 8.82292 29.5938 8.03125L31.1719 5.84375C32.7865 3.6875 33.9531 2.60938 34.6719 2.60938C34.7448 2.60938 35.026 2.70833 35.5156 2.90625C36.0156 3.09375 36.4375 3.28125 36.7812 3.46875C37.6146 3.90625 38.0312 4.31771 38.0312 4.70312C38.0312 5.06771 37.8698 5.45312 37.5469 5.85938C37.224 6.25521 36.8802 6.72396 36.5156 7.26562C36.1615 7.80729 35.776 8.42188 35.3594 9.10938C34.9531 9.78646 34.5417 10.5104 34.125 11.2812C33.7083 12.0417 33.3333 12.7812 33 13.5C32.2396 15.1354 31.8594 16.2448 31.8594 16.8281C31.8594 17.401 31.901 17.8177 31.9844 18.0781C32.0781 18.3385 32.1875 18.5312 32.3125 18.6562C32.5104 18.8542 32.8281 18.9531 33.2656 18.9531C33.7031 18.9531 34.1458 18.875 34.5938 18.7188C35.0521 18.5521 35.4948 18.349 35.9219 18.1094C36.3594 17.8594 36.7865 17.5938 37.2031 17.3125C37.6198 17.0208 38.026 16.75 38.4219 16.5C39.3385 15.9375 40.0156 15.6562 40.4531 15.6562C40.8906 15.6562 41.1823 15.7604 41.3281 15.9688C41.4844 16.1667 41.5625 16.4271 41.5625 16.75C41.5625 17.0729 41.4271 17.5104 41.1562 18.0625C40.8854 18.6042 40.5052 19.1667 40.0156 19.75C39.526 20.3333 38.9479 20.9115 38.2812 21.4844C37.6146 22.0469 36.8854 22.5521 36.0938 23C34.3125 23.9896 32.5677 24.4844 30.8594 24.4844C29.3177 24.4844 27.9583 23.9427 26.7812 22.8594C25.4688 21.6615 24.8125 20.1146 24.8125 18.2188C24.8125 18.125 24.8125 18.0312 24.8125 17.9375C24.8125 17.8438 24.8177 17.7448 24.8281 17.6406L18.2812 18.4688C16.4375 20.2812 14.2083 21.8333 11.5938 23.125C8.96875 24.4062 6.77604 25.0469 5.01562 25.0469ZM57.2656 15.6094C57.2656 16.5573 57.5417 17.0312 58.0938 17.0312C59.4479 17.0312 61.2083 16.1146 63.375 14.2812L63.7969 13.9219C64.6406 13.3594 65.3229 13.0781 65.8438 13.0781C66.375 13.0781 66.7083 13.1562 66.8438 13.3125C66.9896 13.4688 67.0625 13.7188 67.0625 14.0625C67.0625 14.8333 66.6719 15.651 65.8906 16.5156C64.724 17.9323 63.125 19.276 61.0938 20.5469C58.7396 22.026 56.6302 22.7656 54.7656 22.7656C53.4635 22.7656 52.6458 22.0417 52.3125 20.5938C52.2188 20.2188 52.151 19.8594 52.1094 19.5156C52.0052 18.6823 51.8958 18.2188 51.7812 18.125C51.6667 18.0312 51.4375 18.0417 51.0938 18.1562C50.7604 18.2604 50.3594 18.4427 49.8906 18.7031C49.4323 18.9531 48.9219 19.2604 48.3594 19.625C45.3802 21.6042 43.6667 22.7344 43.2188 23.0156C42.1458 23.6823 41.4219 24.0156 41.0469 24.0156C40.6719 24.0156 40.3021 23.9375 39.9375 23.7812C39.5833 23.625 39.2708 23.4271 39 23.1875C38.4375 22.6562 38.1562 22.1146 38.1562 21.5625C38.1562 18.4062 38.8438 15.6458 40.2188 13.2812C41.1354 11.6875 42.2604 10.5833 43.5938 9.96875C44.2708 9.64583 45 9.48438 45.7812 9.48438C47.2083 9.48438 47.9219 9.95312 47.9219 10.8906C47.9219 11.4635 47.5833 12.401 46.9062 13.7031L46.4375 14.625C46.1042 15.2604 45.9427 15.6198 45.9531 15.7031C46.0156 16.0156 46.1562 16.1719 46.375 16.1719C46.6146 16.1719 46.9688 15.9948 47.4375 15.6406L50.3125 13.5L51.75 12.5C53.4062 11.4167 54.625 10.875 55.4062 10.875C55.8229 10.875 56.2031 11.0417 56.5469 11.375C57.1823 11.9792 57.5 12.5052 57.5 12.9531C57.5 13.099 57.4844 13.276 57.4531 13.4844C57.4323 13.6927 57.4062 13.9167 57.375 14.1562L57.3125 14.8906C57.2812 15.1406 57.2656 15.3802 57.2656 15.6094ZM80.0781 13.2969C81.099 13.2969 81.6094 13.651 81.6094 14.3594C81.6094 15.0365 81.1302 15.9115 80.1719 16.9844L79.4062 17.7812C78.4792 18.7292 77.3958 19.6615 76.1562 20.5781C74.9271 21.4948 73.8438 22.2188 72.9062 22.75C70.7292 23.9583 68.7552 24.5625 66.9844 24.5625C65.3177 24.5625 63.9583 24.0625 62.9062 23.0625C62 22.1979 61.5469 21.2865 61.5469 20.3281C61.5469 19.3698 61.6406 18.4167 61.8281 17.4688C62.0156 16.5208 62.2604 15.5938 62.5625 14.6875C63.1667 12.8438 63.8281 11.276 64.5469 9.98438C64.7344 9.63021 64.8281 9.40104 64.8281 9.29688H62.8125C62.0521 9.29688 61.4635 9.11979 61.0469 8.76562C60.6302 8.41146 60.4219 8.01042 60.4219 7.5625C60.4219 7.11458 60.5052 6.78646 60.6719 6.57812C60.8385 6.36979 61.0469 6.21875 61.2969 6.125C61.651 5.97917 62.1719 5.90625 62.8594 5.90625L66.6875 5.92188C66.7708 5.89062 66.9375 5.66667 67.1875 5.25L68.1406 3.60938C68.5469 2.88021 68.9531 2.34375 69.3594 2C69.776 1.65625 70.2604 1.48438 70.8125 1.48438C71.375 1.48438 71.8438 1.53646 72.2188 1.64062C72.6042 1.74479 72.9271 1.875 73.1875 2.03125C73.6979 2.36458 73.9531 2.72917 73.9531 3.125C73.9531 3.29167 73.8958 3.51562 73.7812 3.79688L72.9062 5.92188L80.3281 5.90625C80.974 5.90625 81.2969 6.23958 81.2969 6.90625C81.2969 8.48958 79.8854 9.28125 77.0625 9.28125L71.3438 9.29688C71.2188 9.35938 71.0052 9.66146 70.7031 10.2031L70 11.5C69.8229 11.8229 69.6979 12.0677 69.625 12.2344L69.2812 13C68.5833 14.5729 68.2344 15.7083 68.2344 16.4062C68.2344 17.1042 68.4167 17.6875 68.7812 18.1562C69.1562 18.625 69.651 18.8594 70.2656 18.8594C70.8802 18.8594 71.4792 18.7396 72.0625 18.5C72.6562 18.2604 73.2344 17.9688 73.7969 17.625C74.8177 16.9896 75.6198 16.401 76.2031 15.8594C76.7865 15.3177 77.2708 14.9062 77.6562 14.625C77.6562 14.625 78.0208 14.3698 78.75 13.8594C79.3125 13.4844 79.7552 13.2969 80.0781 13.2969ZM94.3125 14.375C94.3125 14.9375 94.7917 15.2188 95.75 15.2188C96.4583 15.2188 97.3854 14.875 98.5312 14.1875L99.7812 13.5C100.167 13.2812 100.5 13.1719 100.781 13.1719C101.073 13.1719 101.302 13.2604 101.469 13.4375C101.635 13.6146 101.719 13.8594 101.719 14.1719C101.719 14.4844 101.615 14.849 101.406 15.2656C101.198 15.6719 100.911 16.1042 100.547 16.5625C100.182 17.0104 99.7552 17.4583 99.2656 17.9062C98.776 18.3438 98.25 18.7396 97.6875 19.0938C96.4375 19.875 95.276 20.2656 94.2031 20.2656C93.0677 20.2656 92.1615 20.0729 91.4844 19.6875C91.276 19.5625 91.0729 19.4323 90.875 19.2969C89.7604 20.5677 88.1458 21.7344 86.0312 22.7969C83.7812 23.9219 81.8177 24.4844 80.1406 24.4844C78.3802 24.4844 76.9896 23.7917 75.9688 22.4062C75.1458 21.2812 74.7344 20.1406 74.7344 18.9844C74.7344 17.3177 75.625 15.7292 77.4062 14.2188C78.7188 13.1146 79.9844 12.276 81.2031 11.7031C82.4323 11.1302 83.5417 10.6875 84.5312 10.375C86.625 9.71875 88.5104 9.39062 90.1875 9.39062C90.9375 9.39062 91.6042 9.53646 92.1875 9.82812C92.7812 10.1094 93.2188 10.3958 93.5 10.6875C94.1667 11.3438 94.5 12.1823 94.5 13.2031C94.5 13.5052 94.4688 13.7396 94.4062 13.9062C94.3438 14.0729 94.3125 14.2292 94.3125 14.375ZM81.5312 17.3281L81.5156 17.375V17.3906C81.5156 17.8385 81.6146 18.1302 81.8125 18.2656C82.2917 18.5573 82.7969 18.6354 83.3281 18.5C83.8594 18.3542 84.3646 18.1771 84.8438 17.9688C86.0312 17.4583 87.1042 16.8125 88.0625 16.0312C87.8958 15.6979 87.8125 15.3542 87.8125 15C87.8125 14.25 88.1406 13.5 88.7969 12.75C87.9635 12.75 86.8385 13.1406 85.4219 13.9219C83.8594 14.7865 82.6875 15.6771 81.9062 16.5938C81.6562 16.9062 81.5312 17.151 81.5312 17.3281ZM115.391 15.6094C115.391 16.5573 115.667 17.0312 116.219 17.0312C117.573 17.0312 119.333 16.1146 121.5 14.2812L121.922 13.9219C122.766 13.3594 123.448 13.0781 123.969 13.0781C124.5 13.0781 124.833 13.1562 124.969 13.3125C125.115 13.4688 125.188 13.7188 125.188 14.0625C125.188 14.8333 124.797 15.651 124.016 16.5156C122.849 17.9323 121.25 19.276 119.219 20.5469C116.865 22.026 114.755 22.7656 112.891 22.7656C111.589 22.7656 110.771 22.0417 110.438 20.5938C110.344 20.2188 110.276 19.8594 110.234 19.5156C110.13 18.6823 110.021 18.2188 109.906 18.125C109.792 18.0312 109.562 18.0417 109.219 18.1562C108.885 18.2604 108.484 18.4427 108.016 18.7031C107.557 18.9531 107.047 19.2604 106.484 19.625C103.505 21.6042 101.792 22.7344 101.344 23.0156C100.271 23.6823 99.5469 24.0156 99.1719 24.0156C98.7969 24.0156 98.4271 23.9375 98.0625 23.7812C97.7083 23.625 97.3958 23.4271 97.125 23.1875C96.5625 22.6562 96.2812 22.1146 96.2812 21.5625C96.2812 18.4062 96.9688 15.6458 98.3438 13.2812C99.2604 11.6875 100.385 10.5833 101.719 9.96875C102.396 9.64583 103.125 9.48438 103.906 9.48438C105.333 9.48438 106.047 9.95312 106.047 10.8906C106.047 11.4635 105.708 12.401 105.031 13.7031L104.562 14.625C104.229 15.2604 104.068 15.6198 104.078 15.7031C104.141 16.0156 104.281 16.1719 104.5 16.1719C104.74 16.1719 105.094 15.9948 105.562 15.6406L108.438 13.5L109.875 12.5C111.531 11.4167 112.75 10.875 113.531 10.875C113.948 10.875 114.328 11.0417 114.672 11.375C115.307 11.9792 115.625 12.5052 115.625 12.9531C115.625 13.099 115.609 13.276 115.578 13.4844C115.557 13.6927 115.531 13.9167 115.5 14.1562L115.438 14.8906C115.406 15.1406 115.391 15.3802 115.391 15.6094ZM134.516 5.9375C134.214 6.1875 133.885 6.39583 133.531 6.5625C133.177 6.71875 132.781 6.79688 132.344 6.79688C131.906 6.79688 131.484 6.72396 131.078 6.57812C130.672 6.43229 130.318 6.22917 130.016 5.96875C129.359 5.40625 129.031 4.6875 129.031 3.8125C129.031 2.46875 130.156 1.46875 132.406 0.8125C133.167 0.583333 133.792 0.46875 134.281 0.46875C134.771 0.46875 135.135 0.526042 135.375 0.640625C135.625 0.744792 135.828 0.885417 135.984 1.0625C136.297 1.41667 136.453 1.78125 136.453 2.15625C136.453 2.52083 136.406 2.85417 136.312 3.15625C136.229 3.45833 136.104 3.77083 135.938 4.09375C135.771 4.41667 135.568 4.73958 135.328 5.0625C135.089 5.38542 134.818 5.67708 134.516 5.9375ZM130.578 23.1406C129.786 23.5469 129.016 23.8698 128.266 24.1094C127.516 24.3594 126.776 24.4844 126.047 24.4844C125.328 24.4844 124.578 24.3125 123.797 23.9688C123.026 23.6146 122.339 23.1458 121.734 22.5625C120.391 21.2604 119.719 19.8125 119.719 18.2188C119.719 16.75 120.156 15.2604 121.031 13.75C121.833 12.3854 122.854 11.2396 124.094 10.3125C125.333 9.38542 126.484 8.92188 127.547 8.92188C129.068 8.92188 129.88 9.34896 129.984 10.2031C130.016 10.4635 130.031 10.7656 130.031 11.1094C130.031 11.4531 129.948 11.849 129.781 12.2969C129.625 12.7344 129.417 13.1771 129.156 13.625C128.906 14.0625 128.625 14.4948 128.312 14.9219C128.01 15.3385 127.719 15.7188 127.438 16.0625C126.896 16.7188 126.464 17.1927 126.141 17.4844C126.141 17.8385 126.406 18.2031 126.938 18.5781C127.438 18.9323 127.859 19.1094 128.203 19.1094C128.557 19.1094 128.969 19.026 129.438 18.8594C129.917 18.6927 130.406 18.4688 130.906 18.1875C131.417 17.9062 131.932 17.5833 132.453 17.2188C132.984 16.8542 133.505 16.4792 134.016 16.0938L136.875 13.8594C138.01 13.0365 138.932 12.625 139.641 12.625C139.922 12.625 140.135 12.7292 140.281 12.9375C140.438 13.1354 140.516 13.3698 140.516 13.6406C140.516 13.9115 140.38 14.2865 140.109 14.7656C139.839 15.2344 139.464 15.7552 138.984 16.3281C138.516 16.901 137.964 17.5 137.328 18.125C136.693 18.75 136.005 19.3646 135.266 19.9688C134.526 20.5729 133.755 21.151 132.953 21.7031C132.161 22.2448 131.37 22.724 130.578 23.1406ZM152.469 14.375C152.469 14.9375 152.948 15.2188 153.906 15.2188C154.615 15.2188 155.542 14.875 156.688 14.1875L157.938 13.5C158.323 13.2812 158.656 13.1719 158.938 13.1719C159.229 13.1719 159.458 13.2604 159.625 13.4375C159.792 13.6146 159.875 13.8594 159.875 14.1719C159.875 14.4844 159.771 14.849 159.562 15.2656C159.354 15.6719 159.068 16.1042 158.703 16.5625C158.339 17.0104 157.911 17.4583 157.422 17.9062C156.932 18.3438 156.406 18.7396 155.844 19.0938C154.594 19.875 153.432 20.2656 152.359 20.2656C151.224 20.2656 150.318 20.0729 149.641 19.6875C149.432 19.5625 149.229 19.4323 149.031 19.2969C147.917 20.5677 146.302 21.7344 144.188 22.7969C141.938 23.9219 139.974 24.4844 138.297 24.4844C136.536 24.4844 135.146 23.7917 134.125 22.4062C133.302 21.2812 132.891 20.1406 132.891 18.9844C132.891 17.3177 133.781 15.7292 135.562 14.2188C136.875 13.1146 138.141 12.276 139.359 11.7031C140.589 11.1302 141.698 10.6875 142.688 10.375C144.781 9.71875 146.667 9.39062 148.344 9.39062C149.094 9.39062 149.76 9.53646 150.344 9.82812C150.938 10.1094 151.375 10.3958 151.656 10.6875C152.323 11.3438 152.656 12.1823 152.656 13.2031C152.656 13.5052 152.625 13.7396 152.562 13.9062C152.5 14.0729 152.469 14.2292 152.469 14.375ZM139.688 17.3281L139.672 17.375V17.3906C139.672 17.8385 139.771 18.1302 139.969 18.2656C140.448 18.5573 140.953 18.6354 141.484 18.5C142.016 18.3542 142.521 18.1771 143 17.9688C144.188 17.4583 145.26 16.8125 146.219 16.0312C146.052 15.6979 145.969 15.3542 145.969 15C145.969 14.25 146.297 13.5 146.953 12.75C146.12 12.75 144.995 13.1406 143.578 13.9219C142.016 14.7865 140.844 15.6771 140.062 16.5938C139.812 16.9062 139.688 17.151 139.688 17.3281Z" fill="#0F0F0F"/>
</svg>
