<svg xmlns="http://www.w3.org/2000/svg" width="160" height="80" viewBox="0 0 160 80" fill="none"><g clip-path="url(#clip0)"><path fill-rule="evenodd" clip-rule="evenodd" d="M115.964 0.05261C115.377 -0.0573462 114.765 -0.0112891 114.223 0.347996C113.097 1.0956 112.881 2.3134 112.632 3.22244C112.202 4.79255 112.358 6.36116 112.483 7.75865C112.732 10.5577 113.689 13.1003 114.114 15.583C114.367 17.0678 114.591 18.559 114.79 20.0539C114.01 21.913 113.204 23.7602 112.411 25.5592C110.584 29.7024 108.486 33.7496 106.476 37.867C104.339 42.2434 102.383 46.6709 100.057 50.8548C98.4196 53.7998 97.466 55.7063 95.7725 57.8501C95.2556 58.5045 94.3707 59.439 94.0004 59.6135C93.6301 59.788 93.3774 59.8094 93.2128 59.7515C93.0879 59.7078 92.9493 59.5725 92.7787 59.1962C92.6081 58.8201 92.4649 58.2874 92.2664 57.7549C91.4488 55.5617 91.12 53.1283 90.9926 50.6959C90.9287 49.4754 91.0435 48.2235 91.1625 46.9635C92.2235 44.0888 93.3212 41.2233 94.4552 38.3666C96.4656 33.3027 98.7808 28.3288 100.846 23.213C101.94 20.5045 103.363 17.7838 104.109 14.7394C104.265 14.1045 104.546 13.3351 104.722 12.4968C104.898 11.6584 104.971 10.6942 104.541 9.76651C104.037 8.67922 102.99 8.03995 101.859 7.96109C100.168 7.84307 98.8396 8.92515 97.8722 9.7842C96.3805 11.109 95.6068 12.9078 94.863 14.4478C93.7292 16.7952 92.9777 19.2842 92.3434 21.7416C91.4235 25.3055 90.8915 28.9403 90.452 32.5434C90.0893 35.5156 90.0459 38.467 89.837 41.3514C89.7132 43.0611 89.4865 44.8191 89.3125 46.606C88.6667 48.3638 88.0174 50.1203 87.4252 51.9007C87.2294 52.4896 87.0892 53.079 86.9057 53.67C86.4796 52.4669 85.9477 51.361 85.6046 50.3586C85.2197 49.2336 84.7833 48.227 84.6234 47.2656C84.4657 46.3167 84.5433 43.7879 84.5433 43.7879C84.5865 42.7805 83.2373 42.424 82.7846 43.3231C82.7846 43.3231 80.4908 47.8764 79.0665 50.159C78.7685 50.6366 77.7523 51.9507 77.2421 52.5906C77.3971 51.7096 78.2328 49.0698 78.3297 48.3874C78.6236 46.317 79.348 44.2454 78.7738 43.4375C78.4239 42.9454 77.4776 42.4382 76.9764 43.3076C76.9764 43.3076 75.0177 46.7033 74.0604 48.4478C73.2868 49.8574 72.7544 50.8986 71.814 52.6834C72.5332 48.6295 73.7631 44.5971 74.4789 40.3751C74.7649 38.6881 75.8291 36.5629 75.1519 34.2821C75.045 33.9221 74.8831 33.5179 74.6022 33.1312C74.3214 32.7447 73.8554 32.3164 73.184 32.2793C73.086 32.2738 73.0032 32.3059 72.909 32.3106C73.2588 30.937 73.6315 29.5694 73.9088 28.178C74.2472 26.4806 75.042 24.4733 74.5751 22.3148C74.2949 21.0189 73.635 19.8137 72.2581 19.0161C71.027 18.3027 69.6958 18.6259 68.7346 18.8439C66.6267 19.322 64.8819 20.2071 63.2678 21.3237C60.4733 23.2572 57.884 25.5716 55.7151 28.2226C54.4195 29.806 53.3506 31.5347 52.365 33.3031C51.8348 32.6061 51.2432 31.9548 50.4977 31.4433C48.0745 29.7804 45.0422 29.9608 42.5676 29.9044C39.6226 29.8371 36.6907 30.3394 33.903 31.1011C29.3836 32.3361 25.1269 34.3407 21.0394 36.469C16.314 38.9291 12.3371 41.5811 8.0743 44.7645C5.05318 47.0207 0.871098 51.1875 0.510384 51.6204C-0.546429 52.8885 0.18657 54.1596 1.35754 53.0845C1.77215 52.7038 5.86011 48.6006 8.65147 46.516C12.8442 43.385 17.2681 40.542 21.8927 38.1343C25.9351 36.0296 30.0767 34.0886 34.3892 32.9101C37.0574 32.181 39.8189 31.7166 42.5254 31.7784C45.0845 31.8368 47.7119 31.7998 49.4505 32.9929C50.22 33.5209 50.8422 34.3019 51.3828 35.1817C51.0688 35.7987 50.7163 36.4046 50.4202 37.0234C48.9998 39.9914 47.8678 43.1089 47.0209 46.2854C45.8115 50.822 45.0943 55.4806 44.6524 60.1255C44.3513 63.2909 43.9722 66.7477 44.4833 70.2574C44.5831 70.9424 44.8867 71.8671 45.2972 72.7296C45.5025 73.1609 45.7579 73.583 46.1354 73.9361C46.513 74.2891 47.0481 74.5601 47.6394 74.5826C48.2182 74.6046 48.7624 74.3659 49.141 74.0415C49.5194 73.7172 49.7729 73.3271 49.9852 72.934C50.4097 72.1478 50.7465 71.3214 50.9327 70.7871C52.2808 66.9195 53.316 63.355 54.0561 59.682C54.8636 55.6749 55.5016 51.5737 55.5898 47.4306C55.6521 44.5079 55.8079 41.3416 54.819 38.3337C54.4791 37.3005 54.0198 36.2126 53.4922 35.1655C54.5724 33.1304 55.729 31.1523 57.1503 29.4151C59.1948 26.9164 61.6556 24.7125 64.321 22.8684C65.903 21.7738 67.469 21.0519 69.1432 20.6722C70.0398 20.4689 70.9118 20.3979 71.3316 20.641C71.9663 21.0088 72.5438 21.7253 72.7577 22.7143C73.0684 24.1514 72.4669 25.8983 72.086 27.8089C71.7075 29.7073 71.2326 31.5901 70.718 33.4627C70.5722 33.614 70.3841 33.7347 70.2587 33.8915C69.5883 34.7297 69.0633 35.6681 68.5925 36.2521C66.7566 38.5289 65.3934 41.1017 64.109 43.6129C62.3109 47.1281 60.6765 50.7777 59.4816 54.5872C58.8961 56.4534 58.3336 57.9031 58.1621 59.5309C58.0231 60.8497 59.1635 61.1305 59.9629 60.6833C60.7622 60.236 61.0997 59.6313 61.7235 58.8121C63.0588 57.059 64.1619 55.156 65.1495 53.2345C67.2033 49.2389 68.9036 45.0674 70.3767 40.8435C71.1206 38.7104 71.8017 36.5476 72.4124 34.3631C72.6197 34.2207 72.8196 34.1535 73.0285 34.1531C73.0184 34.1425 73.0306 34.1483 73.0814 34.151C73.0634 34.15 73.0462 34.1531 73.0285 34.1531C73.0367 34.1619 73.0577 34.179 73.1012 34.2389C73.1979 34.372 73.311 34.6198 73.3704 34.8198C73.7761 36.186 72.9956 37.9941 72.6455 40.0595C71.9277 44.2928 70.5932 48.4967 69.8639 52.9092C69.6004 54.5037 69.2076 56.6044 69.1396 57.3549C69.0472 58.3765 70.7663 59.0599 71.2391 58.1514C71.5864 57.484 74.122 52.209 75.6886 49.3545C75.9062 48.9578 76.0732 48.68 76.3655 48.162C76.2889 48.8355 76.1888 49.3855 76.0636 49.9904C75.7607 51.4554 74.9982 53.3763 74.9786 54.3445C74.9513 55.6966 76.4041 56.8531 77.5494 55.6589C78.2173 54.9624 79.4825 53.0126 80.6406 51.1565C81.5002 49.7789 81.9778 48.7603 82.77 47.2444C82.783 47.3495 82.7732 47.4779 82.7895 47.5758C83.0015 48.8519 83.4984 49.9504 83.8474 50.9701C84.4425 52.7093 85.3521 54.1268 85.5508 55.5072C85.6578 56.2514 85.6922 57.0093 85.7027 57.7712C85.0646 60.0321 84.3964 62.304 83.7194 64.5269C82.8794 67.2856 81.7159 70.0436 81.0398 73.0279C80.564 75.1277 79.9685 76.9408 80.1846 79.077C80.2456 79.6813 81.2774 80.4433 81.8911 79.6785C82.3133 79.1524 83.5666 77.1114 84.2345 75.4541C85.4135 72.5289 86.133 69.4453 86.6389 66.385C87.0864 63.6781 87.5958 60.8469 87.5802 57.9808C88.0991 56.1498 88.5942 54.2861 89.1895 52.4966C89.2195 52.4062 89.2551 52.3174 89.2853 52.227C89.4665 54.3078 89.7792 56.4104 90.5259 58.4134C90.673 58.8081 90.8216 59.3885 91.0876 59.975C91.3538 60.5615 91.7975 61.2388 92.6008 61.521C93.3941 61.7996 94.1717 61.6017 94.789 61.3107C95.4061 61.0197 96.3239 60.0588 96.9519 59.2995C98.8388 57.0183 100.175 54.4774 101.679 51.7711C104.061 47.4869 106.029 43.0274 108.145 38.6944C110.142 34.6045 112.24 30.3296 114.048 26.0395C114.438 25.1135 114.812 24.1895 115.176 23.2628C115.234 23.7879 115.292 24.3131 115.344 24.8389C115.519 26.6194 115.611 28.3461 115.748 30.2131C115.815 31.1119 115.862 32.0933 115.956 32.973C113.94 35.3363 111.879 37.6538 109.92 40.1571C108.626 41.8108 107.778 42.9741 106.202 45.2628C105.786 45.8675 105.729 46.5639 105.803 47.1719C105.877 47.7799 106.233 48.4841 106.667 48.9976C107.227 49.6614 107.909 50.1943 108.798 50.4866C110.133 50.9254 111.66 51.14 113.038 50.6756C114.38 50.2231 115.293 49.2409 116.078 48.1676C117.038 46.8535 117.21 45.353 117.494 43.9966C117.91 42.0115 118.031 40.0443 118.011 38.1519C117.994 36.6119 118.047 35.0646 117.888 33.5807C118.547 32.7965 119.229 32.0418 119.86 31.2246C120.043 30.9884 120.318 30.5776 120.511 30.3224C120.231 31.0058 119.898 31.659 119.679 32.3744C119.175 34.0298 118.844 35.7936 118.867 37.5779C118.876 38.3372 118.738 39.4904 119.486 40.5083C119.984 41.1863 120.426 41.8679 121.505 41.722C122.381 41.6035 123.14 40.943 123.561 40.4381C123.982 39.9332 124.491 39.4649 124.765 39.1857C125.647 38.2896 126.992 36.6521 127.842 35.6491C127.8 36.0179 127.575 36.914 127.635 37.5476C127.674 37.9581 127.717 38.3409 127.999 38.7293C128.28 39.1175 128.703 39.5073 129.311 39.6225C130.094 39.7711 130.756 39.4135 131.211 39.0742C131.668 38.735 132.022 38.365 132.282 38.1626C133.668 37.0768 134.783 35.7525 135.824 34.4725C136.481 33.6644 136.99 32.8276 137.462 32.0926C137.73 32.4347 138.024 32.8298 138.094 32.9866C138.424 33.7323 138.442 34.7726 138.611 35.9441C138.722 36.7218 138.756 37.4707 138.851 38.2373C138.464 38.7235 138.064 39.2111 137.694 39.6876C136.553 41.1597 135.501 42.7207 134.598 44.3704C133.438 46.4946 132.257 48.7284 131.586 51.1895C131.018 53.2744 130.143 55.7487 130.828 58.24C131.183 59.5265 131.99 60.8641 133.364 61.4825C134.436 61.9649 135.587 61.758 136.495 61.285C137.828 60.5904 138.54 59.2951 139.072 58.2215C139.932 56.4871 140.102 54.6165 140.349 52.9565C140.914 49.1587 141.139 45.3013 141.057 41.4681C141.037 40.5605 140.878 39.7025 140.78 38.8169C141.504 37.9516 142.613 37.0037 143.449 36.3462C145.554 34.6906 147.625 33.518 150.161 32.6459C151.978 32.0209 153.81 31.4386 155.375 31.73C155.793 31.8078 156.258 31.933 156.587 32.0949C157.787 32.6411 156.502 34.1171 156.128 34.5515C155.408 35.3438 154.601 35.8999 153.673 36.6159C152.316 37.664 151.107 38.5049 149.668 39.1595C148.585 39.6525 148.009 40.0036 146.249 40.173C144.933 40.2996 144.791 41.4569 146.252 41.5216C148.03 41.6004 148.505 41.5118 150.447 40.7746C152.268 40.0831 153.771 39.0829 154.946 38.1649C155.866 37.4551 156.949 36.7207 157.7 35.7588C158.111 35.2345 158.419 34.6179 158.613 33.9801C158.813 33.3291 159.123 32.7761 158.856 31.9517C158.605 31.1712 157.986 30.6982 157.404 30.4111C156.821 30.1239 156.218 29.9813 155.713 29.8874C153.501 29.4754 151.379 30.2469 149.559 30.8725C146.833 31.8109 144.584 33.0765 142.306 34.8688C141.776 35.2854 140.985 35.9137 140.526 36.3862C140.492 36.154 140.485 35.9062 140.451 35.6755C140.311 34.6965 140.341 33.4613 139.792 32.2228C139.529 31.6297 139.111 31.1236 138.742 30.685C138.373 30.2465 138.048 29.9104 138.048 29.9104C137.63 29.4775 136.919 29.5519 136.598 30.0624C136.598 30.0624 135.135 32.363 134.386 33.2849C133.362 34.5446 132.327 35.7535 131.14 36.6824C130.724 37.0083 130.386 37.3579 130.106 37.5659C129.827 37.7738 129.712 37.7915 129.655 37.7808C129.674 37.7844 129.604 37.7642 129.502 37.624C129.4 37.4836 129.3 37.2536 129.256 37.0732C129.14 36.5933 129.526 35.7626 129.838 34.649C130.308 32.9795 131.715 29.4679 131.715 29.4679C132.158 28.3681 130.585 27.6271 130.032 28.6754C130.032 28.6754 127.967 32.5614 126.794 34.1571C125.838 35.4576 124.65 36.6416 123.445 37.8652C122.961 38.3568 122.581 38.7285 122.272 39.0994C121.746 39.657 121.45 39.7055 120.98 39.3932C120.774 39.1119 120.737 38.4106 120.726 37.5535C120.707 36.0199 120.995 34.441 121.457 32.9248C122.261 30.2886 123.475 27.7564 124.864 25.2134C125.642 23.7891 126.82 21.9075 128.026 20.0531C129.198 19.5354 130.411 19.0534 131.624 18.5419C133.81 17.6213 135.865 16.8431 138.116 16.0994C140.482 15.3179 142.861 14.5365 145.248 13.7971C146.225 13.4942 146.149 12.3583 145.131 12.3627C145.017 12.3515 144.902 12.3618 144.79 12.3931C144.79 12.3931 140.154 13.5498 137.65 14.3771C135.353 15.1359 133.139 15.8722 130.907 16.8125C130.574 16.9532 130.231 17.0926 129.893 17.2321C131.437 14.9345 132.714 13.1046 132.724 13.0887L132.737 13.0706V13.0696C133.389 12.0473 131.909 11.0282 131.201 12.0125L131.2 12.0134C131.2 12.0134 128.275 15.7025 126.856 17.8493C126.672 18.128 126.484 18.443 126.29 18.7829C125.354 19.2255 124.43 19.713 123.539 20.2811C122.564 20.9019 121.626 21.6444 120.829 22.5419C119.943 23.5405 119.109 25.0688 119.109 25.0688C118.493 26.1661 120.236 26.9795 120.833 25.8709C120.833 25.8709 121.7 24.3731 122.215 23.7924C122.858 23.0679 123.647 22.4347 124.496 21.8908C123.271 23.897 121.471 26.5265 118.392 30.0734C118.137 30.3673 117.873 30.6778 117.628 30.982C117.604 30.717 117.568 30.4439 117.548 30.1802C117.416 28.3806 117.237 26.4716 117.052 24.5934C116.896 23.012 116.696 21.4376 116.467 19.867C117.124 18.0916 117.767 16.2969 118.426 14.4504C119.131 12.4764 119.648 10.8643 120.089 8.68363C120.33 7.49251 120.268 6.28274 120.239 5.44693C120.212 4.65431 119.466 4.63966 119.409 5.43643C119.331 6.53778 119.22 7.08019 119.056 7.8941C118.659 9.86115 118.003 11.6869 117.286 13.6956C116.891 14.8013 116.464 15.9152 116.023 17.0303C115.925 16.4303 115.826 15.83 115.724 15.2299C115.259 12.5097 114.555 10.0506 114.335 7.5913C114.211 6.19702 114.115 4.85313 114.425 3.72125C114.655 2.8799 114.93 2.28309 115.308 2.03215C115.595 1.84144 116.232 1.72141 116.551 1.80365C116.959 1.9085 117.244 2.09978 117.558 2.49365C117.947 2.9818 118.136 3.22001 118.421 3.58655C118.895 4.19515 119.548 3.89964 119.297 3.26874C119.071 2.7012 118.974 2.32776 118.593 1.79569C118.021 0.996185 117.524 0.64091 116.969 0.384598C116.657 0.240273 116.315 0.11858 115.963 0.0526068L115.964 0.05261ZM101.731 9.83086C102.117 9.85784 102.716 10.2586 102.855 10.5598C103.038 10.9548 103.04 11.457 102.903 12.1093C102.766 12.7616 102.495 13.5071 102.303 14.2894C101.629 17.0408 100.263 19.6861 99.1236 22.5072C97.0824 27.5626 95.0694 32.0521 93.0323 37.1834C92.7142 37.9846 91.7563 40.5274 91.4406 41.3308C91.5851 38.8614 92.0073 35.1546 92.2979 32.7721C92.7338 29.1994 93.2575 25.6472 94.1437 22.214C94.7648 19.8083 95.4868 17.439 96.5352 15.2682C97.2956 13.6937 98.0156 12.1561 99.1025 11.1908C99.9684 10.4218 100.985 9.77884 101.731 9.83086ZM116.176 35.626C116.248 36.4629 116.339 37.3035 116.348 38.1271C116.368 40.0179 116.379 41.8711 116.019 43.5878C115.741 44.9158 115.418 46.1906 114.764 47.0855C114.167 47.9021 113.154 48.7706 112.288 49.0627C111.362 49.3749 110.446 49.3287 109.49 49.0656C108.857 48.8915 108.432 48.7054 108.008 48.358C107.708 48.1119 107.36 47.8111 107.307 47.4244C107.253 47.0366 107.666 46.4245 107.731 46.3304C109.296 44.056 110.103 42.9489 111.38 41.3177C112.894 39.3831 114.534 37.5139 116.176 35.626ZM139.131 40.8846C139.14 41.09 139.193 41.3048 139.196 41.5094C139.277 45.2414 139.057 48.9924 138.509 52.678C138.254 54.3984 138.064 56.0605 137.408 57.3842C136.924 58.3606 136.327 59.2617 135.64 59.6195C135.168 59.8657 134.469 59.9264 134.122 59.7704C133.486 59.4837 132.856 58.592 132.62 57.739C132.14 55.9922 132.793 53.841 133.38 51.6851C133.978 49.4895 135.077 47.3801 136.228 45.2751C137.067 43.7419 138.054 42.2776 139.131 40.8846ZM69.0424 38.895C68.8946 39.335 68.7746 39.7834 68.6218 40.2215C67.1701 44.384 65.5019 48.4754 63.4985 52.3729C62.7317 53.8647 61.6767 55.8164 60.741 57.1729C60.8841 56.5138 61.0336 55.8104 61.2548 55.1517C62.4861 51.4875 63.9935 47.928 65.7615 44.4715C66.7599 42.5196 67.836 40.6439 69.0424 38.895ZM52.3717 37.3092C52.595 37.8548 52.8709 38.3674 53.0536 38.9228C53.8983 41.4918 53.7929 44.4393 53.73 47.3903C53.6454 51.3657 53.03 55.3577 52.2338 59.3087C51.4859 63.02 50.545 66.3885 49.265 69.9589C48.9968 70.7067 48.6533 71.4805 48.3521 72.0383C48.2015 72.317 48.0454 72.5199 47.936 72.6136C47.8266 72.7074 47.8053 72.7124 47.7089 72.7086C47.5875 72.704 47.5273 72.6803 47.4009 72.5621C47.2745 72.4439 47.1166 72.218 46.9744 71.9191C46.6897 71.3211 46.3855 70.4899 46.2742 69.753C45.8406 66.8831 46.187 63.6377 46.5042 60.3044C46.9392 55.7326 47.6428 51.176 48.8172 46.7709C49.6353 43.7022 50.7283 40.6946 52.0954 37.838C52.1816 37.658 52.2845 37.4888 52.3717 37.3092Z" fill="#D3AF30"></path></g><defs><clipPath id="clip0"><rect width="160" height="80" fill="white"></rect></clipPath></defs></svg>